<svg width="549.3" height="97.2" viewBox="0 0 549.3 97.2" xmlns="http://www.w3.org/2000/svg"><g id="svgGroup" stroke-linecap="round" fill-rule="solid" font-size="12pt" stroke="#000" stroke-width="0.25mm" fill="#000" style="stroke:#000;stroke-width:0.25mm;fill:none"><path d="M 49.7 71 L 40.8 75.2 L 32.1 56.2 A 30.586 30.586 0 0 0 29.509 51.626 Q 27.003 48.022 23.8 46.1 Q 19.445 43.487 12.964 43.15 A 37.847 37.847 0 0 0 11 43.1 L 9.5 43.1 L 9.5 74 L 0 74 L 0 4.2 Q 5.4 3.7 10.15 3.45 Q 14.9 3.2 20.5 3.2 A 51.439 51.439 0 0 1 25.794 3.458 Q 28.399 3.728 30.67 4.28 A 29.796 29.796 0 0 1 31.7 4.55 A 27.344 27.344 0 0 1 35.785 6.039 A 19.912 19.912 0 0 1 39.7 8.4 Q 42.9 10.9 44.55 14.3 Q 46.2 17.7 46.2 21.8 A 19.88 19.88 0 0 1 45.549 27.02 A 14.672 14.672 0 0 1 41.85 33.55 Q 37.5 38 29.3 40.2 Q 31.3 41.1 33 42.25 Q 34.7 43.4 36.2 45.05 Q 37.7 46.7 39.15 49 A 35.914 35.914 0 0 1 40.245 50.866 Q 41.163 52.537 42.1 54.6 L 49.7 71 Z M 490.8 26 L 490.8 22 L 499 22 L 499 72.8 Q 499 78.32 497.774 82.47 A 22.586 22.586 0 0 1 497.3 83.9 A 21.35 21.35 0 0 1 495.085 88.322 A 17.582 17.582 0 0 1 492.45 91.45 A 19.353 19.353 0 0 1 485.58 95.572 A 22.566 22.566 0 0 1 484.9 95.8 Q 480.5 97.2 475.1 97.2 A 36.362 36.362 0 0 1 466.639 96.233 A 33.912 33.912 0 0 1 466.1 96.1 A 27.017 27.017 0 0 1 460.613 94.068 A 23.77 23.77 0 0 1 458.4 92.8 L 461.7 85 A 20.562 20.562 0 0 0 465.517 87.373 A 24.737 24.737 0 0 0 467.3 88.15 Q 470.059 89.228 473.859 89.376 A 31.788 31.788 0 0 0 475.1 89.4 Q 480.871 89.4 484.627 86.955 A 12.558 12.558 0 0 0 486.25 85.7 A 11.104 11.104 0 0 0 489.123 81.312 Q 489.804 79.498 490.091 77.237 A 28.132 28.132 0 0 0 490.3 73.7 L 490.3 67.3 Q 488.3 69.7 484.55 71.85 Q 480.8 74 475.6 74 Q 471.2 74 467 72.25 Q 462.8 70.5 459.6 67.15 A 24.167 24.167 0 0 1 455.646 61.559 A 29.583 29.583 0 0 1 454.45 58.95 A 26.411 26.411 0 0 1 452.847 52.858 A 35.337 35.337 0 0 1 452.5 47.8 Q 452.5 42 454.4 37.05 A 28.296 28.296 0 0 1 457.651 30.882 A 25.07 25.07 0 0 1 459.55 28.5 Q 462.8 24.9 467.2 22.85 Q 471.6 20.8 476.6 20.8 A 23.149 23.149 0 0 1 480.988 21.199 A 18.269 18.269 0 0 1 484.65 22.3 A 25.597 25.597 0 0 1 488.624 24.388 A 21.326 21.326 0 0 1 490.8 26 Z M 405.5 22 L 405.5 30.7 Q 408.3 26.5 412.65 23.65 A 17.316 17.316 0 0 1 419.756 21.025 A 22.629 22.629 0 0 1 423 20.8 A 23.225 23.225 0 0 1 428.065 21.318 Q 433.159 22.456 436.15 26.1 Q 440.275 31.126 440.488 39.209 A 33.764 33.764 0 0 1 440.5 40.1 L 440.5 74 L 431.5 74 L 431.5 41.1 Q 431.5 36.744 429.982 33.761 A 10.688 10.688 0 0 0 428.9 32.05 A 8.461 8.461 0 0 0 422.955 28.783 A 12.388 12.388 0 0 0 421.5 28.7 Q 419.2 28.7 417 29.55 A 18.175 18.175 0 0 0 413.297 31.513 A 20.625 20.625 0 0 0 412.75 31.9 Q 410.7 33.4 408.95 35.4 Q 407.2 37.4 405.8 39.6 L 405.8 74 L 396.8 74 L 396.8 22 L 405.5 22 Z M 238.2 74.8 L 230.1 71.5 L 257.5 4 L 267.9 4 L 294.9 71.5 L 286.2 75 L 278.4 55 L 246 55 L 238.2 74.8 Z M 510 69.8 L 513.8 62.3 A 17.402 17.402 0 0 0 517.152 64.603 A 23.322 23.322 0 0 0 520.35 66 A 24.791 24.791 0 0 0 527.822 67.383 A 28.367 28.367 0 0 0 528.8 67.4 Q 534.192 67.4 537.035 65.685 A 7.738 7.738 0 0 0 537.25 65.55 Q 540.1 63.7 540.1 60.8 A 7.211 7.211 0 0 0 539.716 58.432 A 6.796 6.796 0 0 0 539.55 58 A 5.377 5.377 0 0 0 538.837 56.803 Q 538.449 56.304 537.919 55.821 A 10.185 10.185 0 0 0 537.55 55.5 A 12.59 12.59 0 0 0 536.315 54.607 Q 535.631 54.169 534.802 53.737 A 27.422 27.422 0 0 0 533.6 53.15 Q 531.92 52.377 529.564 51.492 A 115.589 115.589 0 0 0 527.1 50.6 A 47.106 47.106 0 0 1 522.846 48.945 Q 518.575 47.022 516.1 44.65 A 11.347 11.347 0 0 1 512.869 38.736 A 16.941 16.941 0 0 1 512.5 35.1 Q 512.5 32.1 513.85 29.5 A 13.242 13.242 0 0 1 516.836 25.704 A 15.791 15.791 0 0 1 517.75 24.95 A 17.33 17.33 0 0 1 521.166 22.934 A 22.664 22.664 0 0 1 523.95 21.9 A 24.963 24.963 0 0 1 528.092 21.046 A 34.316 34.316 0 0 1 532.3 20.8 Q 536.952 20.8 540.564 21.674 A 24.48 24.48 0 0 1 541.25 21.85 A 38.541 38.541 0 0 1 545.557 23.291 A 31.513 31.513 0 0 1 548.2 24.5 L 545.7 31.9 Q 543 30.3 539.55 29.3 A 25.024 25.024 0 0 0 535.067 28.453 A 31.837 31.837 0 0 0 531.9 28.3 A 20.632 20.632 0 0 0 528.963 28.495 Q 525.877 28.94 524 30.4 A 9.322 9.322 0 0 0 522.642 31.673 Q 521.94 32.492 521.605 33.365 A 4.529 4.529 0 0 0 521.3 35 A 5.568 5.568 0 0 0 521.494 36.488 A 4.93 4.93 0 0 0 521.75 37.2 Q 522.124 38.032 523.017 38.794 A 7.753 7.753 0 0 0 523.4 39.1 Q 524.6 40 526.6 40.9 A 38.11 38.11 0 0 0 528.241 41.589 Q 529.725 42.175 531.6 42.8 Q 535.352 44.102 538.224 45.432 A 45.049 45.049 0 0 1 539.9 46.25 A 27.212 27.212 0 0 1 542.615 47.841 Q 543.915 48.713 544.941 49.659 A 15.68 15.68 0 0 1 545.4 50.1 A 13.836 13.836 0 0 1 547.338 52.502 A 11.394 11.394 0 0 1 548.4 54.65 A 14.613 14.613 0 0 1 549.194 58.102 A 18.255 18.255 0 0 1 549.3 60.1 A 14.031 14.031 0 0 1 548.771 64.009 A 12.235 12.235 0 0 1 547.8 66.4 Q 546.3 69.2 543.6 71.15 A 17.953 17.953 0 0 1 540.094 73.104 A 23.774 23.774 0 0 1 537.05 74.15 Q 533.2 75.2 528.5 75.2 A 41.103 41.103 0 0 1 522.993 74.848 A 30.514 30.514 0 0 1 517.8 73.7 A 30.72 30.72 0 0 1 513.994 72.215 Q 512.025 71.283 510.444 70.133 A 18.536 18.536 0 0 1 510 69.8 Z M 210.2 27.2 L 210.2 0 L 219.2 0 L 219.2 61.4 A 12.15 12.15 0 0 0 219.302 63.036 Q 219.634 65.47 221.05 66.35 Q 222.9 67.5 225.1 67.5 L 223.2 74.5 Q 213.7 74.5 211.6 66.9 A 20.774 20.774 0 0 1 208.305 70.471 A 27.009 27.009 0 0 1 205.4 72.65 A 14.878 14.878 0 0 1 200.664 74.64 Q 198.68 75.112 196.368 75.186 A 27.174 27.174 0 0 1 195.5 75.2 Q 190.7 75.2 186.45 73.3 Q 182.2 71.4 179.05 67.9 A 24.368 24.368 0 0 1 175.118 61.906 A 29.512 29.512 0 0 1 174.1 59.45 Q 172.3 54.5 172.3 48.3 A 33.082 33.082 0 0 1 173.155 40.672 A 29.101 29.101 0 0 1 174.15 37.35 A 29.65 29.65 0 0 1 176.97 31.584 A 25.323 25.323 0 0 1 179.15 28.65 Q 182.3 25 186.5 22.9 Q 190.7 20.8 195.4 20.8 A 21.642 21.642 0 0 1 199.672 21.202 A 15.942 15.942 0 0 1 204.35 22.9 A 34.343 34.343 0 0 1 206.93 24.489 Q 208.154 25.324 209.125 26.174 A 16.59 16.59 0 0 1 210.2 27.2 Z M 102.8 51.7 L 66.4 51.7 A 24.088 24.088 0 0 0 67.539 56.725 Q 68.875 60.538 71.5 63.1 Q 75.7 67.2 82.6 67.2 Q 87.1 67.2 90.7 66.25 Q 94.3 65.3 97.6 63.8 L 99.7 71.5 A 35.406 35.406 0 0 1 94.881 73.342 A 44.267 44.267 0 0 1 91.6 74.2 A 40.711 40.711 0 0 1 86.508 74.98 A 54.607 54.607 0 0 1 81.5 75.2 A 29.178 29.178 0 0 1 75.704 74.647 A 23.608 23.608 0 0 1 71.4 73.35 Q 66.9 71.5 63.75 68.05 A 22.127 22.127 0 0 1 60.104 62.55 A 27.574 27.574 0 0 1 58.9 59.55 A 31.581 31.581 0 0 1 57.549 53.593 A 42.813 42.813 0 0 1 57.2 48 A 34.878 34.878 0 0 1 58.004 40.403 A 30.597 30.597 0 0 1 58.9 37.2 A 27.699 27.699 0 0 1 61.714 31.251 A 24.152 24.152 0 0 1 63.7 28.55 Q 66.8 24.9 71.1 22.85 Q 75.4 20.8 80.7 20.8 A 27.908 27.908 0 0 1 85.604 21.211 A 20.619 20.619 0 0 1 90.5 22.7 Q 94.7 24.6 97.5 27.9 Q 100.3 31.2 101.7 35.6 A 30.348 30.348 0 0 1 103.097 44.442 A 34.055 34.055 0 0 1 103.1 44.9 A 75.204 75.204 0 0 1 102.809 51.597 A 69.426 69.426 0 0 1 102.8 51.7 Z M 150.7 26.2 L 150.7 22 L 158.9 22 L 158.9 61.4 A 12.15 12.15 0 0 0 159.002 63.036 Q 159.334 65.47 160.75 66.35 Q 162.6 67.5 164.8 67.5 L 162.9 74.5 A 17.722 17.722 0 0 1 158.635 74.028 Q 152.998 72.628 151.403 67.08 A 13.59 13.59 0 0 1 151.3 66.7 Q 150.1 68.3 148.55 69.85 A 18.204 18.204 0 0 1 145.256 72.444 A 20.291 20.291 0 0 1 145 72.6 A 17.462 17.462 0 0 1 141.867 74.067 A 20.704 20.704 0 0 1 140.5 74.5 A 18.765 18.765 0 0 1 137.18 75.102 A 23.457 23.457 0 0 1 135 75.2 Q 130.1 75.2 125.85 73.3 Q 121.6 71.4 118.45 67.9 A 24.891 24.891 0 0 1 114.593 62.12 A 30.206 30.206 0 0 1 113.45 59.45 Q 111.6 54.5 111.6 48.3 Q 111.6 42.5 113.4 37.45 A 27.784 27.784 0 0 1 116.56 31.144 A 24.797 24.797 0 0 1 118.45 28.7 Q 121.7 25 126.25 22.9 A 23.124 23.124 0 0 1 135.029 20.825 A 27.082 27.082 0 0 1 136.2 20.8 A 22.584 22.584 0 0 1 140.994 21.29 A 18.703 18.703 0 0 1 144.35 22.35 A 26.002 26.002 0 0 1 148.637 24.644 A 22.103 22.103 0 0 1 150.7 26.2 Z M 312.4 0 L 312.4 56.8 A 20.644 20.644 0 0 0 312.588 59.688 Q 313.05 62.952 314.65 64.8 A 7.363 7.363 0 0 0 319.234 67.276 A 10.724 10.724 0 0 0 320.9 67.4 Q 322.8 67.4 324.6 66.95 Q 326.4 66.5 327.8 65.9 L 330 73.2 Q 328.601 73.822 326.688 74.323 A 34.978 34.978 0 0 1 325.55 74.6 A 23.816 23.816 0 0 1 322.395 75.085 A 30.514 30.514 0 0 1 319.7 75.2 A 21.419 21.419 0 0 1 315.589 74.819 A 18.058 18.058 0 0 1 313.25 74.2 Q 310.3 73.2 308.1 71.1 A 13.281 13.281 0 0 1 305.622 67.827 A 16.994 16.994 0 0 1 304.65 65.7 Q 303.4 62.4 303.4 57.7 L 303.4 0 L 312.4 0 Z M 333.564 41.659 A 34.196 34.196 0 0 0 333 48 A 34.702 34.702 0 0 0 333.13 51.027 A 28.722 28.722 0 0 0 334.95 59 A 29.451 29.451 0 0 0 335.461 60.228 A 25.437 25.437 0 0 0 340.35 67.6 Q 343.8 71.2 348.55 73.2 A 24.648 24.648 0 0 0 351.602 74.255 A 27.492 27.492 0 0 0 358.9 75.2 A 30.449 30.449 0 0 0 359.925 75.183 A 26.432 26.432 0 0 0 369.15 73.25 Q 373.9 71.3 377.4 67.7 A 23.825 23.825 0 0 0 379.246 65.56 A 26.161 26.161 0 0 0 382.85 59.05 A 27.814 27.814 0 0 0 384.183 54.411 A 34.074 34.074 0 0 0 384.8 47.8 A 34.924 34.924 0 0 0 384.564 43.679 A 27.811 27.811 0 0 0 382.8 36.6 A 28.718 28.718 0 0 0 382.138 35.074 A 24.42 24.42 0 0 0 377.3 28.1 Q 373.8 24.6 369.05 22.7 A 26.059 26.059 0 0 0 368.454 22.47 A 27.19 27.19 0 0 0 358.9 20.8 A 31.154 31.154 0 0 0 357.706 20.823 A 26.981 26.981 0 0 0 348.65 22.7 Q 343.9 24.6 340.45 28.1 Q 337 31.6 335 36.65 A 27.311 27.311 0 0 0 333.564 41.659 Z M 375.6 48 Q 375.6 44.1 374.35 40.6 A 19.563 19.563 0 0 0 371.975 35.945 A 17.715 17.715 0 0 0 370.85 34.5 Q 368.6 31.9 365.55 30.35 Q 362.5 28.8 358.9 28.8 A 19.249 19.249 0 0 0 353.674 29.472 A 14.037 14.037 0 0 0 346.6 34 A 17.878 17.878 0 0 0 342.926 41.374 Q 342.2 44.306 342.2 47.8 Q 342.2 51.7 343.45 55.25 A 20.131 20.131 0 0 0 345.763 59.888 A 18.151 18.151 0 0 0 346.95 61.45 Q 349.2 64.1 352.25 65.65 Q 355.3 67.2 358.9 67.2 A 18.689 18.689 0 0 0 362.818 66.805 A 15.186 15.186 0 0 0 365.9 65.8 Q 369 64.4 371.15 61.85 A 17.366 17.366 0 0 0 373.899 57.286 A 20.701 20.701 0 0 0 374.45 55.8 A 22.798 22.798 0 0 0 375.435 51.144 A 29.007 29.007 0 0 0 375.6 48 Z M 149.9 60.7 L 149.9 32.8 Q 147.2 30.9 143.95 29.75 Q 140.7 28.6 137.1 28.6 A 16.142 16.142 0 0 0 132.633 29.203 A 14.448 14.448 0 0 0 130.5 30 Q 127.5 31.4 125.35 33.95 A 17.393 17.393 0 0 0 122.843 37.953 A 21.502 21.502 0 0 0 122 40.1 A 23.426 23.426 0 0 0 120.917 45.381 A 28.621 28.621 0 0 0 120.8 48 A 25.723 25.723 0 0 0 121.269 52.996 A 21.781 21.781 0 0 0 122 55.75 A 19.283 19.283 0 0 0 123.876 59.774 A 16.545 16.545 0 0 0 125.4 61.85 Q 127.6 64.4 130.55 65.8 A 14.679 14.679 0 0 0 136.349 67.188 A 17.126 17.126 0 0 0 137 67.2 Q 140.8 67.2 144.2 65.4 Q 147.6 63.6 149.9 60.7 Z M 210.2 60.9 L 210.2 35.1 A 16.273 16.273 0 0 0 208.019 32.857 Q 206.887 31.887 205.48 30.983 A 28.298 28.298 0 0 0 204.95 30.65 A 14.048 14.048 0 0 0 197.954 28.609 A 16.873 16.873 0 0 0 197.4 28.6 A 14.964 14.964 0 0 0 193.054 29.216 A 13.39 13.39 0 0 0 190.85 30.1 Q 187.9 31.6 185.8 34.2 Q 183.7 36.8 182.6 40.35 Q 181.5 43.9 181.5 48 A 25.594 25.594 0 0 0 181.923 52.741 A 21.215 21.215 0 0 0 182.7 55.7 A 19.851 19.851 0 0 0 184.571 59.704 A 17.107 17.107 0 0 0 186.05 61.75 Q 188.2 64.3 191.15 65.75 Q 194.1 67.2 197.5 67.2 Q 201.2 67.2 204.55 65.45 Q 207.9 63.7 210.2 60.9 Z M 490 60 L 490 32.8 A 27.745 27.745 0 0 0 487.022 31.006 A 35.046 35.046 0 0 0 484.7 29.9 Q 481.7 28.6 477.5 28.6 Q 474.4 28.6 471.55 29.85 Q 468.7 31.1 466.5 33.5 A 16.883 16.883 0 0 0 463.851 37.394 A 20.757 20.757 0 0 0 463 39.35 Q 461.7 42.8 461.7 47.3 A 24.492 24.492 0 0 0 462.067 51.629 A 19.399 19.399 0 0 0 463 55.05 A 19.805 19.805 0 0 0 464.919 58.883 A 16.804 16.804 0 0 0 466.5 60.95 Q 468.7 63.4 471.55 64.7 Q 474.4 66 477.6 66 A 15.276 15.276 0 0 0 482.178 65.332 A 13.606 13.606 0 0 0 484.8 64.2 A 20.855 20.855 0 0 0 487.781 62.184 A 16.309 16.309 0 0 0 490 60 Z M 262.2 13.4 L 249 47 L 275.3 47 L 262.2 13.4 Z M 9.5 11.6 L 9.5 35.1 L 20.5 35.1 A 26.489 26.489 0 0 0 25.423 34.669 Q 29.352 33.925 32.2 31.9 Q 36.7 28.7 36.7 22.7 A 9.811 9.811 0 0 0 33.427 15.236 A 13.272 13.272 0 0 0 32.5 14.45 A 13.923 13.923 0 0 0 28.136 12.228 Q 26.207 11.618 23.877 11.37 A 31.944 31.944 0 0 0 20.5 11.2 Q 17.326 11.2 14.762 11.287 A 118.974 118.974 0 0 0 14.4 11.3 Q 11.7 11.4 9.5 11.6 Z M 66.3 44.4 L 94.8 44.4 A 24.355 24.355 0 0 0 94.396 39.815 Q 93.9 37.231 92.796 35.207 A 12.422 12.422 0 0 0 91 32.7 A 12.488 12.488 0 0 0 84.039 28.924 A 18.395 18.395 0 0 0 80.5 28.6 Q 74.6 28.6 70.85 32.6 A 14.739 14.739 0 0 0 68.057 37.005 Q 67.232 38.961 66.752 41.361 A 32.287 32.287 0 0 0 66.3 44.4 Z" vector-effect="non-scaling-stroke"/></g></svg>